<?xml version="1.0" standalone="no"?>
<!DOCTYPE svg PUBLIC "-//W3C//DTD SVG 20010904//EN"
 "http://www.w3.org/TR/2001/REC-SVG-20010904/DTD/svg10.dtd">
<svg version="1.0" xmlns="http://www.w3.org/2000/svg"
 width="500.000000pt" height="500.000000pt" viewBox="0 0 500.000000 500.000000"
 preserveAspectRatio="xMidYMid meet">

<g transform="translate(0.000000,500.000000) scale(0.100000,-0.100000)"
fill="#000000" stroke="none">
<path d="M2560 4523 c-25 -10 -71 -45 -66 -50 3 -3 -1 -21 -9 -40 -8 -19 -13
-39 -10 -43 3 -5 36 -25 73 -46 37 -20 76 -43 88 -51 20 -13 20 -11 16 50 -5
92 -20 170 -35 179 -14 9 -35 9 -57 1z"/>
<path d="M3218 4386 c-20 -7 -53 -28 -73 -47 -38 -35 -137 -177 -181 -258 -13
-25 -45 -79 -69 -119 -25 -41 -45 -77 -45 -81 0 -11 -40 -7 -48 5 -11 14 -34
16 -29 2 2 -7 10 -12 17 -10 11 3 11 0 0 -12 -14 -17 -21 -20 -19 -8 4 22 -4
23 -28 1 -14 -13 -24 -19 -20 -14 3 7 -9 11 -34 11 -22 0 -34 -3 -27 -7 16
-10 -28 -27 -62 -23 -14 1 -33 3 -43 3 -10 1 -21 11 -26 24 -23 60 -151 144
-251 165 -53 12 -141 2 -166 -19 -16 -12 -17 -12 -9 1 6 11 3 10 -12 -2 -11
-10 -24 -18 -29 -18 -14 0 -74 -63 -74 -78 0 -8 17 -5 53 9 32 13 84 23 137
26 72 4 94 2 145 -18 90 -33 156 -102 213 -218 45 -92 46 -97 49 -205 2 -61 6
-121 9 -133 4 -24 101 -76 164 -89 28 -5 31 -8 16 -14 -16 -5 -15 -8 12 -19
18 -7 30 -17 27 -21 -2 -4 7 -12 22 -19 43 -20 73 -54 61 -68 -7 -9 -7 -13 0
-13 6 0 25 -19 43 -41 26 -33 28 -39 12 -30 -31 16 -38 14 -21 -6 20 -24 58
-121 58 -147 -1 -19 -3 -19 -27 8 l-25 30 8 -35 c12 -44 9 -116 -6 -154 l-12
-30 -19 24 -19 23 0 -33 c0 -24 -3 -30 -9 -20 -7 10 -12 0 -17 -35 -7 -46 -8
-47 -15 -19 -4 17 -7 23 -8 14 -1 -14 -20 -29 -36 -29 -2 0 -6 18 -10 40 -6
38 -25 57 -25 25 0 -8 -5 -15 -11 -15 -5 0 -7 5 -4 10 3 6 0 10 -8 10 -8 0
-18 -7 -21 -16 -3 -8 -10 -13 -15 -9 -5 3 -12 1 -16 -5 -3 -5 -21 -10 -40 -10
-19 0 -38 -6 -42 -12 -4 -7 -17 -14 -28 -15 -11 -1 -38 -6 -60 -11 -22 -6 -64
-12 -94 -15 -30 -3 -57 -10 -60 -14 -3 -5 -35 -10 -71 -10 -36 -1 -67 -2 -70
-3 -12 -4 -122 2 -200 10 -47 5 -123 12 -169 15 -47 3 -87 8 -91 10 -3 2 -12
0 -20 -6 -13 -7 -13 -9 1 -9 9 0 30 -12 46 -27 43 -39 76 -63 86 -63 5 0 7 -6
4 -14 -4 -10 8 -17 41 -26 26 -7 55 -14 65 -17 9 -2 15 -9 12 -14 -4 -5 -2 -9
2 -9 16 0 45 -61 39 -83 -5 -21 -10 -22 -98 -20 -51 1 -106 7 -123 14 -30 12
-39 15 -63 17 -7 1 -11 6 -8 11 3 4 -12 8 -33 8 -22 0 -59 10 -83 22 -24 11
-50 21 -57 21 -19 0 -159 71 -172 87 -6 7 -16 13 -22 13 -5 0 -31 17 -56 37
-54 44 -74 63 -67 63 3 0 -5 11 -18 25 -13 14 -39 51 -57 83 -39 66 -125 152
-151 152 -10 0 -26 -4 -36 -9 -37 -20 -91 -41 -104 -41 -7 0 -26 -7 -43 -16
-16 -8 -37 -13 -47 -11 -9 3 -19 0 -22 -7 -2 -6 -5 -3 -5 7 -1 18 72 97 89 97
6 0 10 5 10 10 0 6 -5 10 -12 10 -17 0 -118 -53 -118 -63 0 -4 -4 -5 -10 -2
-22 14 -8 -45 19 -81 56 -75 68 -84 109 -84 21 0 43 5 49 11 7 7 23 2 54 -19
24 -16 64 -35 88 -43 40 -12 53 -25 118 -116 75 -104 293 -322 354 -353 16 -9
27 -19 23 -23 -4 -4 0 -7 8 -7 15 0 77 -24 143 -55 61 -28 124 -55 179 -75
l56 -21 0 -73 c0 -84 6 -93 71 -101 102 -12 126 -17 145 -33 18 -15 68 -81 99
-131 6 -9 24 -34 40 -56 17 -21 31 -43 31 -47 1 -4 2 -15 3 -23 0 -8 9 -15 19
-15 13 0 14 -2 4 -9 -11 -6 -10 -10 3 -15 12 -4 15 -13 12 -29 -3 -12 2 -52
12 -89 10 -37 19 -105 20 -151 1 -47 6 -98 10 -113 7 -26 8 -25 14 21 6 56 67
207 95 239 10 12 29 38 41 59 18 30 28 37 50 35 14 -1 32 2 39 6 7 4 19 2 27
-4 8 -6 18 -9 22 -7 5 3 37 -20 72 -52 60 -53 64 -60 66 -104 2 -26 -1 -45 -5
-42 -7 5 -3 -59 5 -84 4 -11 3 -11 -9 -2 -13 11 -14 5 -10 -41 2 -29 1 -48 -3
-43 -13 16 -33 16 -27 0 3 -7 1 -22 -5 -32 -6 -11 -11 -13 -11 -5 0 26 -20 0
-20 -26 0 -21 -2 -24 -10 -12 -8 11 -9 6 -8 -20 2 -24 -1 -34 -9 -33 -7 2 -13
-2 -13 -8 0 -5 -4 -8 -8 -5 -5 3 -15 -6 -22 -19 -7 -13 -17 -22 -22 -19 -4 3
-8 -1 -8 -9 0 -8 -11 -13 -30 -13 -16 0 -30 3 -30 7 0 4 -8 6 -17 5 -10 -2
-21 2 -25 8 -5 7 -8 6 -8 -3 0 -8 -22 9 -49 37 -28 29 -57 52 -67 52 -14 0
-15 -8 -10 -55 5 -46 3 -58 -14 -75 -10 -10 -28 -37 -39 -59 -19 -36 -67 -81
-88 -81 -5 0 -16 -9 -26 -20 -21 -25 -37 -26 -30 -1 3 10 -1 22 -8 27 -9 5
-11 2 -6 -9 9 -23 -11 -32 -31 -14 -19 16 -53 31 -64 29 -5 -1 -8 3 -8 8 0 5
-3 9 -7 8 -22 -4 -70 28 -139 94 -91 86 -114 121 -159 236 l-33 87 2 -60 c2
-57 -11 -115 -25 -115 -4 0 -10 -16 -13 -35 -4 -19 -11 -35 -16 -35 -18 0 -32
-69 -20 -104 17 -53 100 -129 188 -171 42 -20 84 -41 92 -45 24 -12 8 -25 -30
-24 -19 0 -73 8 -119 16 -63 12 -91 14 -110 5 -14 -5 -33 -11 -41 -12 -34 -3
-67 -19 -92 -46 -15 -16 -31 -29 -37 -29 -12 0 -24 -36 -17 -49 9 -14 103 -25
196 -22 278 7 530 21 553 30 34 13 35 40 2 89 -48 71 -27 108 55 97 31 -4 50
-3 50 3 0 6 8 9 18 7 9 -2 37 -4 62 -5 36 -1 41 -3 25 -11 -14 -6 -4 -8 36 -6
52 2 60 -1 110 -40 30 -23 83 -54 118 -69 69 -30 69 -31 -15 -53 -31 -8 -45
-18 -54 -40 -6 -16 -18 -32 -25 -34 -7 -3 -15 -20 -17 -37 -7 -49 14 -54 197
-55 l160 0 75 38 c41 21 83 46 92 55 16 16 16 20 -4 62 -26 55 -29 186 -7 270
16 62 31 70 81 45 39 -19 184 -32 173 -16 -6 11 -2 13 46 16 41 3 111 15 152
26 27 7 37 15 37 29 0 15 -7 20 -27 21 -20 1 -8 7 37 21 104 32 116 38 101 48
-11 6 -9 10 8 19 11 7 36 26 54 44 18 18 42 37 53 43 17 10 15 11 -11 7 l-30
-4 28 16 c35 20 34 28 -3 20 -28 -6 -26 -3 29 50 33 32 60 60 59 64 -2 10 14
45 30 64 15 17 5 24 -14 10 -5 -5 -3 -1 6 8 8 8 26 28 40 44 l25 30 -24 -20
c-28 -23 -20 -4 12 32 24 27 12 31 -17 5 -13 -11 -17 -12 -10 -2 6 8 14 24 18
35 6 17 4 17 -18 -4 -35 -33 -32 -14 4 29 31 36 39 56 18 44 -10 -6 -10 -4 0
7 18 19 15 34 -5 18 -15 -13 -15 -12 -5 7 35 66 47 146 16 107 -11 -13 -10 -7
2 17 10 21 13 35 6 38 -7 2 -7 14 -1 35 12 41 11 60 0 52 -6 -3 -7 9 -4 31 5
29 3 35 -7 29 -9 -6 -12 -4 -8 6 16 39 20 54 10 40 -7 -9 -9 15 -7 77 1 50 -1
89 -5 87 -5 -3 -4 11 0 29 6 28 5 33 -7 29 -12 -5 -14 -1 -8 18 12 38 32 73
51 90 29 25 87 32 128 15 20 -8 36 -12 36 -9 0 3 7 0 15 -7 9 -7 27 -14 41
-14 26 -2 31 -8 70 -89 12 -24 20 -32 22 -23 2 9 10 16 18 16 8 0 14 8 14 18
0 14 2 14 9 3 7 -11 12 -4 21 27 6 23 15 42 20 42 6 0 10 11 10 25 0 22 9 30
33 26 4 0 8 20 8 46 1 43 2 45 9 18 8 -30 8 -30 9 8 1 22 6 37 14 37 8 0 12
16 11 50 0 27 3 47 8 44 11 -7 10 3 -3 28 -8 15 -8 19 1 13 7 -4 6 5 -4 23
-21 40 -47 113 -50 137 -1 12 -19 28 -46 43 -24 12 -39 22 -32 22 20 0 14 28
-8 35 -11 3 -20 10 -20 15 0 5 -12 13 -27 18 -25 9 -25 11 -6 11 12 1 25 6 28
11 6 10 2 11 -47 14 -15 1 -31 6 -35 11 -4 4 0 5 10 2 9 -4 17 -2 17 5 0 13
-86 5 -170 -16 l-55 -13 70 4 c39 3 88 0 110 -6 l40 -11 -49 5 c-27 3 -78 0
-113 -5 -69 -11 -186 -58 -177 -71 2 -4 -1 -11 -7 -15 -8 -4 -9 -3 -5 4 10 17
-6 15 -32 -4 -12 -8 -22 -11 -22 -7 0 5 -9 9 -19 9 -11 0 -18 -3 -16 -7 3 -3
-8 -17 -23 -30 -15 -13 -21 -17 -14 -9 18 20 15 35 -4 19 -9 -7 -23 -14 -31
-15 -12 -2 -11 2 3 24 14 23 12 22 -21 -8 -35 -32 -37 -33 -32 -11 l6 23 -23
-21 c-31 -29 -42 -26 -21 5 l17 27 -34 -26 c-23 -18 -38 -23 -48 -17 -9 6 -20
4 -29 -3 -15 -13 -14 -1 4 48 l8 20 -16 -20 c-9 -11 -17 -15 -17 -10 0 6 -5 3
-10 -5 -8 -12 -10 -10 -10 9 0 24 0 24 -16 5 -15 -18 -15 -18 -9 10 6 27 5 28
-11 15 -16 -13 -16 -12 -6 8 17 30 15 41 -3 17 -21 -28 -18 -10 6 37 29 59 15
60 -16 2 -26 -48 -26 -47 -9 35 3 17 -3 11 -18 -20 -23 -48 -45 -65 -35 -28 7
29 -2 25 -13 -6 -8 -19 -15 -24 -30 -19 -13 4 -20 2 -20 -7 0 -10 -2 -10 -9 1
-7 11 -10 9 -16 -8 -3 -12 -11 -19 -16 -16 -5 4 -9 -2 -10 -12 0 -16 -1 -16
-9 2 -8 18 -9 18 -9 2 -1 -10 -7 -20 -15 -23 -8 -3 -18 -19 -21 -36 -5 -20
-10 -26 -15 -18 -6 9 -10 7 -15 -9 -3 -12 -11 -19 -16 -16 -5 4 -9 -3 -9 -15
0 -12 -4 -19 -9 -16 -10 7 -20 -25 -22 -69 l-1 -30 -7 30 c-7 27 -8 24 -15
-27 -5 -32 -12 -55 -17 -52 -5 3 -10 -19 -10 -48 -2 -50 -2 -51 -10 -18 -6 27
-7 21 -5 -32 1 -37 -1 -65 -5 -62 -12 7 -19 -74 -9 -101 13 -34 13 -38 -1 -29
-9 5 -10 -1 -4 -22 4 -16 9 -45 11 -64 3 -19 9 -48 14 -64 13 -36 12 -39 -1
-30 -6 3 -4 -7 5 -24 8 -16 13 -32 10 -35 -3 -3 6 -28 20 -55 14 -28 21 -52
16 -54 -10 -3 15 -115 31 -134 4 -5 7 -62 5 -125 -2 -89 -7 -126 -25 -171 -19
-49 -47 -89 -54 -77 -1 2 -20 40 -41 84 -35 72 -57 97 -211 250 -222 221 -236
240 -300 425 -37 105 -49 176 -47 262 2 80 12 96 70 103 115 15 221 39 265 61
26 14 47 22 47 19 0 -12 100 46 113 65 20 28 78 71 88 64 4 -2 19 12 33 33 15
21 26 31 26 23 1 -8 7 -3 15 11 23 43 28 127 12 202 -15 70 -13 112 5 100 6
-3 9 0 6 8 -3 8 -10 14 -16 14 -6 0 -17 7 -24 15 -11 12 -11 12 5 1 9 -7 17
-11 17 -8 0 14 -47 86 -79 121 -37 40 -34 40 32 -1 21 -13 42 -21 47 -18 6 3
7 -2 4 -12 -5 -15 -4 -16 5 -3 6 8 11 49 12 90 0 41 1 145 3 231 l2 156 32 49
c48 73 100 185 119 256 24 90 23 330 -1 413 -26 87 -49 115 -94 115 -20 -1
-54 -7 -74 -14z m97 -164 c38 -27 53 -149 31 -245 -29 -123 -106 -241 -106
-162 0 14 -4 25 -8 25 -10 0 -6 104 7 224 6 48 10 91 9 95 -2 12 16 46 31 58
19 15 23 15 36 5z m-182 -549 c-7 -2 -19 -2 -25 0 -7 3 -2 5 12 5 14 0 19 -2
13 -5z m1062 -933 c-27 -5 -63 -8 -80 -8 -25 1 -23 2 10 8 22 4 58 7 80 7 38
0 37 0 -10 -7z m82 -6 c-3 -3 -12 -4 -19 -1 -8 3 -5 6 6 6 11 1 17 -2 13 -5z
m-2575 -2169 c-19 -8 -48 -29 -64 -47 -20 -21 -27 -25 -20 -11 16 30 73 73 97
72 14 0 10 -4 -13 -14z m1090 -102 c-6 -2 -10 -8 -7 -13 3 -4 -2 -11 -10 -14
-13 -4 -14 -2 -5 14 6 11 16 20 23 19 9 0 9 -2 -1 -6z"/>
<path d="M2460 4374 c0 -5 4 -16 10 -24 6 -9 5 -17 -2 -21 -6 -4 1 -13 19 -23
34 -17 56 -54 26 -41 -10 4 -31 11 -48 17 -16 5 -39 13 -50 18 -31 12 -167 42
-171 37 -3 -2 7 -12 21 -21 14 -9 30 -28 35 -41 9 -23 12 -24 127 -24 65 0
131 -4 146 -10 16 -6 40 -11 55 -11 l27 0 -25 13 c-14 7 -24 21 -24 30 1 9 -4
17 -11 17 -11 0 -57 31 -122 83 -7 5 -13 6 -13 1z"/>
<path d="M2760 4240 c0 -19 28 -60 41 -60 11 0 1 21 -25 55 -12 15 -15 16 -16
5z"/>
<path d="M1720 4045 c-13 -14 -21 -28 -17 -31 7 -7 46 35 47 49 0 12 -5 8 -30
-18z"/>
<path d="M2740 3885 c-7 -9 -10 -18 -7 -21 3 -3 10 4 17 15 13 25 8 27 -10 6z"/>
<path d="M2610 3839 c0 -5 5 -7 10 -4 6 3 10 8 10 11 0 2 -4 4 -10 4 -5 0 -10
-5 -10 -11z"/>
<path d="M2023 3694 c-52 -19 -127 -84 -165 -144 -57 -90 -100 -285 -67 -306
8 -4 9 1 5 17 -7 22 -5 22 15 -5 28 -36 79 -58 117 -50 74 15 152 125 152 215
0 41 -2 47 -19 42 -28 -7 -35 13 -10 30 20 14 20 16 5 46 -17 31 -60 60 -93
62 -10 0 5 11 32 25 65 31 158 33 214 5 87 -45 148 -161 137 -264 -7 -75 -30
-121 -69 -146 -18 -12 -27 -21 -20 -21 23 0 76 56 99 105 31 66 33 179 4 243
-33 73 -58 99 -122 131 -70 35 -143 40 -215 15z m-85 -175 c1 -9 -6 -26 -16
-39 -22 -27 -52 -22 -52 9 0 42 60 68 68 30z"/>
<path d="M1283 3333 c-20 -7 -15 -74 7 -111 11 -18 20 -40 21 -50 1 -12 3 -11
7 5 5 14 30 34 72 55 66 34 82 56 59 84 -11 13 -14 13 -21 1 -6 -12 -17 -13
-55 -5 -27 5 -55 12 -63 17 -8 4 -21 6 -27 4z"/>
<path d="M650 3157 c0 -14 35 -48 134 -130 44 -37 47 -38 81 -26 19 7 35 16
35 20 0 4 -28 25 -62 47 -35 22 -79 52 -98 66 -45 32 -90 44 -90 23z"/>
<path d="M1334 3098 c3 -10 9 -25 12 -33 3 -8 1 -15 -6 -15 -6 0 -8 -4 -5 -10
3 -5 14 -10 24 -10 10 0 32 -7 47 -15 16 -8 46 -18 67 -21 27 -5 37 -12 37
-25 0 -21 -26 -49 -46 -49 -15 0 -15 -10 3 -103 7 -39 44 -61 89 -53 48 9 102
67 171 183 50 83 57 91 75 82 17 -9 18 -8 10 8 -13 24 -52 58 -76 67 -15 5
-17 4 -7 -8 28 -34 -107 -91 -214 -90 -74 0 -127 24 -162 73 -14 20 -23 28
-19 19z"/>
<path d="M3231 2885 c1 -11 5 -31 9 -45 8 -24 8 -24 9 5 0 17 -4 37 -9 45 -8
12 -10 11 -9 -5z"/>
<path d="M4140 2890 c-20 -6 -21 -8 -5 -8 11 0 34 4 50 8 27 7 27 8 5 8 -14 0
-36 -4 -50 -8z"/>
<path d="M4144 2865 c-58 -16 -136 -49 -94 -40 14 3 50 12 80 20 30 8 68 15
85 16 26 0 27 2 10 9 -25 11 -21 11 -81 -5z"/>
<path d="M4121 2828 c-34 -10 -61 -21 -59 -23 2 -2 40 2 83 9 44 8 73 15 65
16 -8 2 5 6 30 10 l45 7 -50 1 c-27 0 -79 -9 -114 -20z"/>
<path d="M3655 2659 c-4 -6 -5 -12 -2 -15 2 -3 7 2 10 11 7 17 1 20 -8 4z"/>
<path d="M1690 1728 c-25 -18 -67 -46 -93 -64 -26 -17 -72 -64 -102 -105 -57
-75 -66 -78 -39 -9 25 61 8 68 -64 25 -49 -29 -66 -46 -92 -93 -37 -68 -37
-98 1 -95 19 1 30 -6 40 -23 17 -33 56 -42 74 -18 7 11 17 16 21 12 12 -12 34
12 34 37 0 28 94 133 135 151 17 7 59 16 93 20 l62 7 0 93 c0 108 -2 109 -70
62z"/>
</g>
</svg>
